<?xml version="1.0" standalone="no"?><!DOCTYPE svg PUBLIC "-//W3C//DTD SVG 1.1//EN" "http://www.w3.org/Graphics/SVG/1.1/DTD/svg11.dtd"><svg t="1575457754028" class="icon" viewBox="0 0 1024 1024" version="1.1" xmlns="http://www.w3.org/2000/svg" p-id="1758" xmlns:xlink="http://www.w3.org/1999/xlink" width="200" height="200"><defs><style type="text/css"></style></defs><path d="M876.8 470.4v28.8h-115.2v-28.8zM822.4 291.2l16 22.4-102.4 57.6-12.8-22.4zM681.6 160l25.6 12.8-57.6 102.4-25.6-16zM147.2 499.2v-28.8h115.2v28.8zM188.8 313.6l16-22.4 96 57.6-12.8 22.4zM316.8 172.8l25.6-12.8 57.6 99.2-25.6 16zM496 118.4h32v115.2h-32z" fill="#F9D65D" p-id="1759"></path><path d="M512 275.2c-128 0-230.4 102.4-230.4 230.4 0 76.8 38.4 144 92.8 185.6 16 12.8 32 22.4 48 28.8h-12.8v166.4h48c6.4 19.2 28.8 35.2 51.2 35.2 25.6 0 48-16 57.6-35.2h48v-166.4h-16c16-6.4 32-16 44.8-25.6 57.6-41.6 96-108.8 96-185.6 6.4-128-99.2-233.6-227.2-233.6z m80 569.6h-160v-32h160v32z m0-60.8h-160v-28.8h160v28.8z" fill="#FE6D68" p-id="1760"></path></svg>