<?xml version="1.0" standalone="no"?><!DOCTYPE svg PUBLIC "-//W3C//DTD SVG 1.1//EN" "http://www.w3.org/Graphics/SVG/1.1/DTD/svg11.dtd"><svg t="1579136854799" class="icon" viewBox="0 0 3433 1024" version="1.1" xmlns="http://www.w3.org/2000/svg" p-id="1914" xmlns:xlink="http://www.w3.org/1999/xlink" width="670.5078125" height="200"><defs><style type="text/css"></style></defs><path d="M3120.368941 836.969412a311.657412 311.657412 0 0 1-203.053176-74.812236 60.235294 60.235294 0 0 1 78.426353-91.437176c34.394353 29.515294 78.667294 45.778824 124.626823 45.778824 103.544471 0 187.813647-81.076706 187.813647-180.705883 0-96.256-87.762824-180.705882-187.813647-180.705882-79.450353 0-150.588235 48.429176-177.091765 120.470588-26.383059 72.041412-99.629176 120.470588-182.031058 120.470588H2464.828235v-120.470588h296.417883c31.683765 0 59.994353-17.046588 69.029647-41.562353 43.730824-119.205647 160.346353-199.378824 290.093176-199.378823 167.092706 0 308.224 137.938824 308.224 301.17647 0 166.068706-138.24 301.176471-308.224 301.176471z m-2462.599529-240.941177H116.374588a60.235294 60.235294 0 0 1 0-120.470588h541.394824v120.470588z" fill="#98A6AF" p-id="1915"></path><path d="M824.681412 69.872941A610.544941 610.544941 0 0 1 958.945882 54.452706c44.032 0 88.124235 5.12 134.264471 15.420235 49.513412 11.866353 109.989647 76.378353 125.711059 135.529412 26.864941 108.845176 41.622588 219.617882 41.502117 330.390588a1373.184 1373.184 0 0 1-41.502117 330.390588c-15.721412 59.151059-76.197647 123.602824-125.711059 135.529412-46.140235 10.300235-90.232471 15.420235-134.264471 15.420235-44.092235 0-88.124235-5.12-134.26447-15.420235-49.513412-11.926588-109.989647-76.378353-125.711059-135.529412a1373.184 1373.184 0 0 1-41.502118-330.390588 1373.184 1373.184 0 0 1 41.502118-330.390588c15.721412-59.151059 76.197647-123.663059 125.711059-135.529412" fill="#ED7161" p-id="1916"></path><path d="M1427.034353 69.872941A610.544941 610.544941 0 0 1 1561.298824 54.452706c44.032 0 88.124235 5.12 134.26447 15.420235 49.453176 11.866353 109.989647 76.378353 125.711059 135.529412 26.864941 108.845176 41.622588 219.617882 41.502118 330.390588a1373.184 1373.184 0 0 1-41.502118 330.390588c-15.721412 59.151059-76.257882 123.602824-125.711059 135.529412-46.140235 10.300235-90.232471 15.420235-134.26447 15.420235-44.092235 0-88.124235-5.12-134.264471-15.420235-49.513412-11.926588-109.989647-76.378353-125.711059-135.529412a1373.184 1373.184 0 0 1-41.502118-330.390588 1373.184 1373.184 0 0 1 41.502118-330.390588c15.721412-59.151059 76.197647-123.663059 125.711059-135.529412" fill="#ED7161" p-id="1917"></path><path d="M2029.387294 69.872941A610.544941 610.544941 0 0 1 2163.651765 54.452706c44.032 0 88.124235 5.12 134.26447 15.420235 49.453176 11.866353 109.989647 76.378353 125.711059 135.529412 26.864941 108.845176 41.622588 219.617882 41.502118 330.390588a1373.184 1373.184 0 0 1-41.502118 330.390588c-15.721412 59.151059-76.257882 123.602824-125.711059 135.529412-46.140235 10.300235-90.232471 15.420235-134.26447 15.420235-44.092235 0-88.124235-5.12-134.264471-15.420235-49.513412-11.926588-109.989647-76.378353-125.711059-135.529412a1373.184 1373.184 0 0 1-41.502117-330.390588 1373.184 1373.184 0 0 1 41.502117-330.390588c15.721412-59.151059 76.197647-123.663059 125.711059-135.529412" fill="#ED7161" p-id="1918"></path></svg>