<?xml version="1.0" standalone="no"?><!DOCTYPE svg PUBLIC "-//W3C//DTD SVG 1.1//EN" "http://www.w3.org/Graphics/SVG/1.1/DTD/svg11.dtd"><svg t="1579137114498" class="icon" viewBox="0 0 1954 1024" version="1.1" xmlns="http://www.w3.org/2000/svg" p-id="2040" xmlns:xlink="http://www.w3.org/1999/xlink" width="381.640625" height="200"><defs><style type="text/css"></style></defs><path d="M976.289047 1024C452.652684 1024 25.086138 612.072727 0.091229 94.487273-1.165498 68.282182 20.617775 46.545455 46.869411 46.545455h1858.839273c26.251636 0 48.034909 21.736727 46.778181 47.941818C1927.491956 612.072727 1499.971956 1024 976.289047 1024" fill="#F8912B" p-id="2041"></path><path d="M977.499229 884.363636C514.790865 884.363636 139.681047 509.253818 139.681047 46.545455h1675.636364c0 462.708364-375.109818 837.818182-837.818182 837.818181" fill="#F9C350" p-id="2042"></path><path d="M1006.915956 55.435636a46.08 46.08 0 0 0-38.586181-13.312 46.452364 46.452364 0 0 0-27.508364 13.498182l-372.410182 372.084364a46.545455 46.545455 0 1 0 65.861818 65.815273l293.143273-292.864v446.091636a46.545455 46.545455 0 1 0 93.184 0V200.657455l293.096727 292.864a46.545455 46.545455 0 1 0 65.861818-65.815273l-372.642909-372.270546z" fill="#FDF7AC" p-id="2043"></path></svg>